<svg viewBox="0 0 296 85" fill="none" xmlns="http://www.w3.org/2000/svg"><path d="M17.228 42.29v.36H33.005v-.722H17.228v.361zM19.436 45.856v.34h11.361v-.68H19.436v.34zM23.018 49.272v.36h4.099v-.722h-4.1v.362z" fill="#DAD7CD"></path><path d="M12.49 13.718L0 27.436l12.502 13.73L25 54.894l12.498-13.726L50 27.436 37.51 13.718C30.642 6.175 25.012 0 25 0c-.012 0-5.642 6.175-12.51 13.718zm24.517.552l11.988 13.166H43.72l-.514-.463c-1.96-1.762-4.695-4.706-6.319-6.8a53.161 53.161 0 01-2.572-3.673c-.247-.39-.44-.659-.506-.693-.26-.135-.569.077-1.036.714-.577.79-.874 1.164-1.01 1.287-.139.119-.143.123-.27.047-.522-.298-2.027-2.392-3.121-4.35-.15-.271-.321-.539-.375-.594-.209-.216-.518-.106-1.044.357-.17.153-.34.276-.38.28-.216.004-.695-.471-1.09-1.083-.301-.463-.75-1.304-1.156-2.153-.186-.39-.379-.748-.43-.794-.17-.145-.347-.153-.583-.026-.449.242-.847.888-2.111 3.42-.287.572-.63 1.235-.77 1.477-.29.51-.68 1.07-.75 1.07-.027 0-.22-.136-.43-.301-.494-.391-.788-.548-1.032-.548-.325 0-.402.068-.94.862-2.316 3.423-6.005 7.48-10.351 11.382l-.65.582H1.005L12.993 14.27C19.586 7.03 24.988 1.104 25 1.104c.012 0 5.414 5.925 12.007 13.166zM23.546 9.904a3.487 3.487 0 01-.116.34c-.112.293-.112.284-.012.259.074-.021.078-.013.055.076a3.723 3.723 0 01-.143.349c-.109.237-.109.254-.047.331.081.102.05.238-.128.56-.073.136-.127.255-.12.264a.56.56 0 00.182-.026c.093-.02.178-.034.186-.02.012.012-.046.16-.131.33-.225.455-.225.46-.078.417.282-.077.414-.081.414-.013 0 .047.023.06.097.038.12-.034.123.009.003.323-.12.323-.487.921-.761 1.24-.213.246-.225.255-.279.178-.062-.093-.035-.131-.263.344-.1.213-.104.226-.03.226.108 0 .092.085-.063.322-.143.23-.843.888-.866.82a1.763 1.763 0 01.035-.314c.027-.149.035-.29.023-.315-.02-.03-.104.005-.236.085-.232.145-.587.2-.963.149l-.22-.034.182-.217c.363-.437.793-1.231 1.659-3.045.789-1.656 1.11-2.242 1.415-2.582.182-.2.248-.225.205-.085zm4.107 3.27a4.572 4.572 0 01-.112.353c-.031.093-.07.297-.082.45-.019.31-.243 1.087-.406 1.423l-.104.216.155-.101c.089-.052.17-.098.185-.098.054 0-.19.667-.36.98-.088.175-.301.545-.471.825-.286.476-.588 1.074-.56 1.104.007.008.107-.05.223-.132.116-.085.314-.208.437-.276l.22-.123v.098c0 .055.051.153.117.22.15.158.15.328.004.578-.182.31-.63.718-.785.718-.09 0-.085-.034.004-.263.038-.102.085-.25.1-.327l.027-.14-.166.114c-.205.136-.866.489-.924.489-.024 0-.031-.022-.02-.043.016-.025-.085-.042-.267-.042-.162 0-.293-.009-.293-.022 0-.012.089-.148.193-.301.108-.153.193-.306.193-.34 0-.098-.158-.068-.456.09l-.278.144v-.17a.962.962 0 00-.078-.336c-.139-.301-.093-.484.236-.947l.081-.119-.108.03c-.135.034-.12.017.217-.263.46-.378 1.032-1.066.955-1.147-.008-.009-.097.013-.194.051-.262.098-.29.06-.116-.161.252-.319.79-1.088 1.056-1.517.194-.31.279-.412.367-.437.066-.017.205-.115.31-.217.251-.242.638-.539.7-.539.042 0 .042.034 0 .178zm-9.327 2.251c.011.145.023.548.027.9 0 .918.089 1.118.375.854.15-.14.232-.123.332.06.19.357.1 1.282-.185 2.009-.074.182-.112.318-.093.305.02-.017.213-.284.425-.598.21-.315.39-.565.399-.557a.693.693 0 01-.043.225c-.03.115-.089.582-.131 1.04-.101 1.084-.201 1.483-.542 2.116-.139.259-.116.255.255-.047.132-.106.314-.289.406-.408.093-.119.186-.216.205-.216.05 0 0 1.134-.07 1.593-.123.798-.332 1.482-.622 2.025-.162.306-.534.803-.568.756a17.062 17.062 0 01-.12-.828c-.12-.947-.22-1.55-.255-1.55a3.34 3.34 0 00-.236.412c-.805 1.542-2.05 3.02-2.986 3.542-.123.068-.224.106-.224.09 0-.077.24-.43.569-.837.522-.65.738-.948.823-1.13.043-.09.07-.166.054-.166a1.66 1.66 0 00-.243.149c-.294.195-.766.437-.913.471-.112.021-.123.013-.205-.208l-.089-.233-.471.369c-.584.459-1.044.769-1.408.934-.278.132-.762.276-.831.25-.02-.008.224-.288.545-.623.325-.336.603-.642.622-.684.027-.06.016-.068-.077-.051l-.112.017.14-.285c.142-.297.258-.658.212-.658-.016 0-.514.382-1.11.854-1.698 1.337-2.355 1.822-2.401 1.77-.035-.042.17-.271 1.02-1.129.986-.998 1.4-1.461 1.4-1.571 0-.039.159-.361.352-.71.194-.352.39-.7.433-.781.105-.187.225-.268-1.249.854-1.025.781-1.287.968-1.31.947-.032-.039.216-.298 1.29-1.351 1.668-1.635 2.132-2.157 2.081-2.357-.03-.14.294-.599 1.025-1.436 1.257-1.448 2.146-2.59 2.958-3.805.26-.39.437-.616.468-.603.031.013.062.127.078.28zm2.026 1.321c.882.654 1.74 1.325 3.167 2.48 1.288 1.037 1.334 1.075 1.848 1.415.522.344 1.218.76 2.437 1.444.51.288 1.28.739 1.709 1.002.429.263 1.04.624 1.353.794.58.319.774.404 1.992.9.885.357 1.902.837 2.68 1.258.653.352 1.102.645 1.017.666-.027.005-.588-.19-1.25-.441-1.774-.667-2.51-.867-2.714-.748-.066.043-.194-.042-.94-.611l-.858-.663-.085.09c-.105.105-.302.114-.507.02-.244-.11-.61-.369-1.326-.942-1.006-.803-1.307-.986-1.636-.986-.108 0-.162.026-.22.107l-.074.102-.371-.251c-1.292-.87-1.953-1.431-2.889-2.442-.847-.913-1.121-1.126-1.43-1.126-.117 0-.151-.02-.186-.106-.078-.187-.36-.488-1.052-1.117a67.14 67.14 0 01-.85-.79c-.403-.39-.623-.62-.6-.62.015 0 .367.255.785.565zm13.295.043a7.375 7.375 0 01-.14 1.745c-.038.166-.061.31-.058.314.008.009.124-.136.26-.327.204-.293.247-.33.282-.267.02.038.038.348.038.688 0 .569-.007.633-.092.802l-.09.192-.046-.12-.042-.118-.054.161a8.205 8.205 0 01-.34.718 9.635 9.635 0 00-.283.578c0 .017.077-.017.174-.077l.178-.106-.027.119c-.132.611-.495 1.325-.847 1.665-.228.22-.449.335-.696.37-.275.033-.294.008-.232-.29l.05-.242-.1.026c-.058.012-.128.03-.151.038-.027.013-.066-.05-.093-.144-.039-.149-.031-.187.135-.587.097-.233.178-.437.178-.445 0-.013-.178.093-.398.237-.433.285-.828.45-1.075.45-.136 0-.159-.012-.143-.076.015-.064-.008-.072-.263-.06-.456.026-.456.013.03-.564.384-.459.766-.986.766-1.058 0-.012-.085.022-.193.081-.104.06-.201.106-.216.106-.09 0 1.28-1.618 1.457-1.72.062-.038.128-.136.17-.263.117-.34.325-.756.43-.867.058-.055.305-.36.557-.675.247-.314.525-.65.618-.739.163-.161.17-.161.198-.076.019.05.042.289.058.53zm1.36 1.877c.271.459.592.909 1.227 1.72.32.408.8 1.028 1.067 1.38 1.284 1.682 2.42 2.871 3.759 3.924.827.65.843.684.127.31-.638-.34-1.175-.738-1.864-1.401-.448-.429-3.14-3.478-3.364-3.814-.34-.505-.754-1.304-1.036-2.013-.267-.667-.31-.803-.17-.552.042.08.158.28.255.446zm-21.299 11.67l.174.052-.011.233c-.004.128-.043 1.015-.09 1.967-.042.95-.073 1.783-.065 1.843.008.085.255-.459.897-1.954l.886-2.068h.444c.438 0 .441 0 .422.093-.012.056-.19 1.27-.398 2.697l-.38 2.604h-.873l.023-.183.267-1.835c.135-.913.24-1.66.236-1.669-.008-.004-.368.824-.8 1.84l-.79 1.847h-.839l.024-.332c.042-.594.146-3.096.131-3.185-.008-.05-.298.663-.688 1.699-.372.98-.696 1.792-.72 1.805a.968.968 0 01-.24.004l-.193-.013.96-2.527c.63-1.656.943-2.53.912-2.54-.1-.025-.503.175-.692.349-.147.127-.244.268-.352.501-.132.28-.151.365-.17.705-.012.225 0 .438.023.514.042.132.042.132-.093.132-.363 0-.63-.353-.576-.76.097-.76.97-1.58 1.933-1.81.287-.068.414-.072.638-.008zm19.54.302c.457.213.344.888-.154.922-.569.042-.778-.675-.267-.922a.437.437 0 01.421 0zm-5.193.395c0 .038-.182.88-.217.998-.015.064.016.072.263.085.26.013.283.021.271.098-.023.183-.039.191-.336.191-.159 0-.29.008-.29.017 0 .009-.124.578-.271 1.261-.178.82-.267 1.287-.248 1.368.105.535.925.055 1.002-.586.131-1.113.735-2.056 1.462-2.294.394-.127.885-.06 1.001.145.07.123.097.11.124-.06l.027-.148h.383c.213 0 .387.008.387.017 0 .012-.132.615-.29 1.342-.159.726-.29 1.397-.29 1.49 0 .175.1.336.212.336.174 0 .487-.314.638-.637.043-.093.194-.688.329-1.32.14-.634.259-1.169.274-1.19.028-.051.75-.051.75 0 0 .021-.13.633-.29 1.359-.158.726-.29 1.384-.29 1.47 0 .157.109.318.217.318.12 0 .325-.14.437-.293.205-.285.275-.514.526-1.665.14-.633.26-1.168.275-1.19.011-.02.185-.037.39-.037h.371l-.027.127a8.128 8.128 0 01-.05.263l-.023.14.197-.199c.24-.234.476-.331.804-.331.275 0 .418.046.55.182.274.28.286.671.054 1.644-.19.807-.217.99-.163 1.172.054.183.174.22.364.123.174-.089.294-.25.294-.39 0-.175.116-.391.29-.548.127-.115.228-.276.437-.73.147-.32.332-.765.41-.986.077-.221.154-.433.173-.467.02-.043.167-.09.414-.132.21-.038.387-.068.387-.064.004 0 .035.395.07.875.085 1.155.15 1.97.162 1.992.008.009.116-.055.24-.14.174-.115.27-.153.398-.153l.17.004-.155.149c-.085.085-.301.259-.483.39a5.065 5.065 0 00-.545.455c-.255.26-.51.361-.882.361-.375 0-.63-.098-.835-.314l-.174-.179-.143.162c-.205.23-.414.331-.688.331-.31 0-.519-.115-.639-.352-.143-.272-.127-.701.055-1.398.2-.798.236-1.049.166-1.236-.116-.297-.491-.25-.8.098a1.59 1.59 0 00-.256.387c-.046.102-.193.696-.328 1.32l-.244 1.139h-.766l.027-.179.027-.178-.158.153c-.387.36-.986.331-1.203-.06a.607.607 0 01-.077-.216c0-.106-.02-.094-.201.127-.31.37-.808.51-1.106.31-.124-.08-.275-.365-.279-.514 0-.038-.077.017-.204.153-.279.297-.519.42-.867.438a1.354 1.354 0 01-.421-.034c-.19-.073-.464-.353-.518-.535l-.047-.15-.259.273a2.746 2.746 0 01-.41.348c-.193.098-.545.132-.727.068-.154-.06-.375-.306-.375-.425 0-.144-.05-.127-.201.06a1.434 1.434 0 01-.36.301c-.181.094-.25.11-.475.094-.418-.026-.611-.23-.654-.697-.027-.259.02-.548.205-1.287.078-.318.132-.628.132-.773 0-.212-.012-.255-.1-.331a.363.363 0 00-.206-.09c-.247.005-.595.298-.762.646-.038.077-.185.667-.324 1.308l-.26 1.168-.39.013-.39.013.038-.14c.054-.213.046-.221-.089-.094-.193.174-.414.272-.642.272-.325 0-.503-.136-.588-.454l-.05-.179-.186.213c-.24.271-.525.42-.808.42-.398-.004-.68-.23-.792-.645-.082-.302-.078-.349.077-1.075l.135-.637c0-.004-.139.034-.305.076l-.306.085-.027.234c-.096.862-.564 1.644-1.121 1.873-.263.11-.689.119-.982.021a1.053 1.053 0 01-.611-.603c-.155-.442-.027-1.363.27-1.975.333-.688.913-1.091 1.574-1.091.576 0 .824.255.909.943.02.178.035.203.116.203.131 0 .495-.089.537-.127.02-.021.082-.255.14-.518l.1-.48.375-.013c.34-.008.375-.004.375.064 0 .042-.123.628-.27 1.304-.283 1.27-.314 1.512-.213 1.669.182.284.704.068.913-.378.05-.11.614-2.54.614-2.655 0-.008.174-.012.387-.012.213 0 .387.008.387.017 0 .012-.132.607-.29 1.32-.159.718-.29 1.394-.29 1.5 0 .42.286.463.603.085.263-.31.275-.349.615-1.916l.22-1.006h.383c.209 0 .383.012.383.03 0 .02-.023.131-.054.254l-.054.217.205-.183c.278-.246.53-.335.897-.31.305.021.417.085.568.306.07.102.081.178.081.548 0 .37-.023.514-.143.985-.22.845-.236 1.198-.065 1.3.17.097.421-.081.642-.459.104-.183.17-.408.36-1.27.127-.573.231-1.062.231-1.083 0-.021-.054-.038-.116-.038-.108 0-.116-.008-.093-.119.039-.17.047-.178.17-.178.124 0 .132-.021.256-.637.035-.174.07-.327.08-.34.009-.009.175-.038.372-.068.197-.026.368-.051.387-.055.015 0 .027.008.027.025zm9.706 8.71c0 .018-2.87 3.186-6.38 7.038L25 53.79l-6.38-7.008c-3.508-3.852-6.381-7.02-6.381-7.037 0-.021 5.742-.034 12.761-.034 7.019 0 12.761.013 12.761.034z" fill="#DAD7CD"></path></svg>