<svg class="reviewIcon" width="111" height="111" viewBox="0 0 111 111" fill="none" xmlns="http://www.w3.org/2000/svg"><path d="M19.5117 97.125H19.0781V91.9219C19.0781 90.5419 18.5299 89.2185 17.5542 88.2427C16.5784 87.2669 15.255 86.7188 13.875 86.7188H10.4062C9.0263 86.7187 7.70286 87.2669 6.72709 88.2427C5.75131 89.2185 5.20313 90.5419 5.20312 91.9219V105.797H27.75V104.062L26.0156 103.629C26.0156 101.904 25.3304 100.25 24.1107 99.03C22.891 97.8102 21.2367 97.125 19.5117 97.125Z" fill="#344E41"></path><path d="M91.4883 97.125H91.9219V91.9219C91.9219 90.5419 92.4701 89.2185 93.4458 88.2427C94.4216 87.2669 95.745 86.7188 97.125 86.7188H100.594C101.974 86.7187 103.297 87.2669 104.273 88.2427C105.249 89.2185 105.797 90.5419 105.797 91.9219V105.797H83.25V104.062L84.9844 103.629C84.9844 101.904 85.6696 100.25 86.8893 99.03C88.109 97.8102 89.7633 97.125 91.4883 97.125Z" fill="#344E41"></path><path d="M84.9844 105.797H26.0156V55.5H84.9844V105.797Z" fill="#344E41"></path><path d="M69.375 98.8594V45.0938H41.625V98.8594H26.0156V105.797H84.9844V98.8594H69.375Z" fill="#A3B18A"></path><path d="M50.2969 91.9219H60.7031V105.797H50.2969V91.9219Z" fill="#588157"></path><path d="M46.8281 69.375H50.2969V72.8438H46.8281V69.375Z" fill="#DAD7CD"></path><path d="M53.7656 69.375H57.2344V72.8438H53.7656V69.375Z" fill="#DAD7CD"></path><path d="M60.7031 69.375H64.1719V72.8438H60.7031V69.375Z" fill="#DAD7CD"></path><path d="M46.8281 76.3125H50.2969V79.7812H46.8281V76.3125Z" fill="#DAD7CD"></path><path d="M53.7656 76.3125H57.2344V79.7812H53.7656V76.3125Z" fill="#DAD7CD"></path><path d="M60.7031 76.3125H64.1719V79.7812H60.7031V76.3125Z" fill="#DAD7CD"></path><path d="M46.8281 83.25H50.2969V86.7188H46.8281V83.25Z" fill="#DAD7CD"></path><path d="M53.7656 83.25H57.2344V86.7188H53.7656V83.25Z" fill="#DAD7CD"></path><path d="M60.7031 83.25H64.1719V86.7188H60.7031V83.25Z" fill="#DAD7CD"></path><path d="M46.8281 55.5H50.2969V58.9688H46.8281V55.5Z" fill="#DAD7CD"></path><path d="M53.7656 55.5H57.2344V58.9688H53.7656V55.5Z" fill="#DAD7CD"></path><path d="M60.7031 55.5H64.1719V58.9688H60.7031V55.5Z" fill="#DAD7CD"></path><path d="M46.8281 62.4375H50.2969V65.9062H46.8281V62.4375Z" fill="#DAD7CD"></path><path d="M53.7656 62.4375H57.2344V65.9062H53.7656V62.4375Z" fill="#DAD7CD"></path><path d="M60.7031 62.4375H64.1719V65.9062H60.7031V62.4375Z" fill="#DAD7CD"></path><g class="stars"><path d="M55.5008 5.20312L60.3612 15.0516L71.2296 16.6307L63.3651 24.2966L65.2218 35.1211L55.5008 30.0105L45.7798 35.1211L47.6363 24.2966L39.772 16.6307L50.6402 15.0516L55.5008 5.20312Z" fill="#588157" style="transform: translateY(0.0101397px); opacity: 0.999797;"></path><path d="M83.7545 24.2812L87.1259 31.1127L94.665 32.2082L89.2097 37.5258L90.4975 45.0346L83.7545 41.4895L77.0112 45.0346L78.299 37.5258L72.8438 32.2082L80.3829 31.1127L83.7545 24.2812Z" fill="#588157" style="transform: translateY(0.0101397px); opacity: 0.999797;"></path><path d="M98.3143 46.8281L100.627 51.5131L105.797 52.2645L102.056 55.9113L102.939 61.0606L98.3143 58.6295L93.6901 61.0606L94.5733 55.9113L90.832 52.2645L96.0022 51.5131L98.3143 46.8281Z" fill="#588157" style="transform: translateY(0.0101397px); opacity: 0.999797;"></path><path d="M27.2455 24.2812L23.8741 31.1127L16.335 32.2082L21.7902 37.5258L20.5024 45.0346L27.2455 41.4895L33.9887 45.0346L32.701 37.5258L38.1562 32.2082L30.6171 31.1127L27.2455 24.2812Z" fill="#588157" style="transform: translateY(0.0101397px); opacity: 0.999797;"></path><path d="M12.6857 46.8281L10.3733 51.5131L5.20312 52.2645L8.94439 55.9113L8.06116 61.0606L12.6857 58.6295L17.3099 61.0606L16.4267 55.9113L20.168 52.2645L14.9978 51.5131L12.6857 46.8281Z" fill="#588157" style="transform: translateY(0.0101397px); opacity: 0.999797;"></path></g><path d="M31.2188 62.4375H36.4219V65.9062H31.2188V62.4375Z" fill="#DAD7CD"></path><path d="M31.2188 71.1094H36.4219V74.5781H31.2188V71.1094Z" fill="#DAD7CD"></path><path d="M31.2188 79.7812H36.4219V83.25H31.2188V79.7812Z" fill="#DAD7CD"></path><path d="M31.2188 88.4531H36.4219V91.9219H31.2188V88.4531Z" fill="#DAD7CD"></path><path d="M74.5781 79.7812H79.7812V83.25H74.5781V79.7812Z" fill="#DAD7CD"></path><path d="M74.5781 88.4531H79.7812V91.9219H74.5781V88.4531Z" fill="#DAD7CD"></path><path d="M74.5781 62.4375H79.7812V65.9062H74.5781V62.4375Z" fill="#DAD7CD"></path><path d="M74.5781 71.1094H79.7812V74.5781H74.5781V71.1094Z" fill="#DAD7CD"></path><path d="M48.5625 39.8906H62.4375V50.2969H48.5625V39.8906Z" fill="#588157"></path></svg>