<svg class="worldWideIcon" width="82" height="82" viewBox="0 0 82 82" fill="none" xmlns="http://www.w3.org/2000/svg" style="transform: rotate(1turn);"><path d="M70.6891 12.7355L66.4473 15.5632L59.3779 14.1493L55.1361 12.7355L49.4805 14.1493L45.2388 12.7355L48.0665 7.07987H53.7221L59.2646 4.30869C63.5391 6.42243 67.406 9.27562 70.6891 12.7355Z" fill="#85958D"></path><path d="M38.1691 7.07988L36.7552 11.3216L32.5135 12.7355L28.2717 19.805L21.2023 24.0467L11.3051 25.4606V29.7023L14.1328 32.53V38.1856L9.89136 35.3578L5.64962 32.53L3.18945 25.1355C7.42399 15.0443 15.5186 7.06707 25.6703 2.97955L29.6858 5.66602L38.1691 7.07988Z" fill="#85958D"></path><path d="M40.9969 46.6688L39.5831 53.7383L33.9275 59.3939V63.6357L28.2718 67.8773V74.9467L24.0303 73.5329L21.2024 66.4634V52.3244L14.1329 50.9106L11.3052 45.255V41.0132L14.1329 38.1855L18.3746 33.9438L21.2024 39.5994H31.0996L35.3413 46.6688H40.9969Z" fill="#85958D"></path><path d="M76.7683 20.9784C84.4867 34.7484 83.6073 51.7279 74.5061 64.6253L70.6886 60.8078V55.1522L67.8608 49.4965L65.0331 43.8409V38.1853L60.7914 35.3576L55.1358 36.7715L45.2386 32.5297L43.8247 22.6325L48.0665 18.3908H56.5498L59.3775 22.6325L67.8608 24.0464L76.3442 21.2187L76.7683 20.9784Z" fill="#85958D"></path><path d="M49.4805 14.1496L55.1361 12.7358L59.3779 14.1496L66.4474 15.5635L70.6891 12.7358C73.0573 15.2143 75.1004 17.9841 76.7688 20.9787L76.3447 21.2191L67.8614 24.0468L59.378 22.6329L56.5503 18.3912H48.067L43.8252 22.6329L45.2391 32.5301L55.1363 36.7719L60.7919 35.358L65.0336 38.1858V43.8414L67.8614 49.497L70.6891 55.1526V60.8082L74.5066 64.6257C61.4493 83.1279 35.8648 87.5407 17.364 74.4833C1.65137 63.3926 -4.24319 42.8727 3.18967 25.1356L5.64984 32.5301L9.89159 35.3579L14.1333 38.1856L11.3054 41.0135V45.2552L14.1332 50.9108L21.2026 52.3247V66.4636L24.0304 73.5331L28.2721 74.947V67.8775L33.9277 63.6358V59.394L39.5833 53.7384L40.9972 46.6689H35.3416L31.0998 39.5995H21.2026L18.3749 33.9438L14.1332 38.1856V32.53L11.3054 29.7024V25.4607L21.2026 24.0468L28.2721 19.8051L32.5139 12.7356L36.7556 11.3217L38.1695 7.07999L29.6861 5.66613L25.6707 2.97966C36.5436 -1.39918 48.7709 -0.915669 59.2648 4.3088L53.7223 7.07999H48.0667L45.2389 12.7356L49.4805 14.1496Z" fill="#344E41"></path></svg>