<svg class="lawIcon" width="92" height="92" viewBox="0 0 92 92" fill="none" xmlns="http://www.w3.org/2000/svg"><g clip-path="url(#clipLaw)"><g class="hammer"><path d="M36.9557 53.5537L32.4236 49.0216L1.57161 77.5021C-0.467127 79.3842 -0.531096 82.5842 1.43091 84.5462C3.39292 86.5082 6.59297 86.4442 8.47502 84.4055L36.9557 53.5537Z" fill="#588157" style="transform: translateY(-0.0101397px); opacity: 0.999797;"></path><path d="M8.33862 84.548C6.44166 86.445 3.34582 86.4611 1.43125 84.5466C0.864879 83.9802 0.468129 83.3112 0.239746 82.5998C1.93186 83.1502 3.86243 82.7477 5.19732 81.4128C5.24422 81.3659 5.29094 81.3161 5.3364 81.268L33.8176 50.4155L36.9558 53.5537L8.47482 84.4061C8.42936 84.4542 8.38408 84.5025 8.33862 84.548Z" fill="#344E41" style="transform: translateY(-0.0101397px); opacity: 0.999797;"></path><path d="M41.4187 38.283L30.9824 50.7317L35.2457 54.9948L47.6944 44.5587L41.4187 38.283Z" fill="#588157" style="transform: translateY(-0.0101397px); opacity: 0.999797;"></path><path d="M41.4185 38.283L38.0463 42.3056L39.0581 43.3174C39.8029 44.0622 39.8029 45.2697 39.0581 46.0144L32.6616 52.4109L35.2455 54.9948L47.6943 44.5587L41.4185 38.283Z" fill="#344E41" style="transform: translateY(-0.0101397px); opacity: 0.999797;"></path><path d="M32.7109 57.405L28.5726 53.2666C27.3762 52.0702 27.3762 50.1303 28.5726 48.934C29.7689 47.7376 31.7088 47.7376 32.9052 48.934L37.0436 53.0723C38.2399 54.2687 38.2399 56.2084 37.0436 57.405C35.8472 58.6013 33.9073 58.6013 32.7109 57.405Z" fill="#7A8C78" style="transform: translateY(-0.0101397px); opacity: 0.999797;"></path><path d="M37.0422 57.4048C36.4435 58.0035 35.659 58.3019 34.8773 58.3021C34.0928 58.3021 33.3083 58.0035 32.7096 57.4048L29.5728 54.268C30.1715 54.8667 30.956 55.1653 31.7391 55.1637C32.5221 55.1651 33.3067 54.8665 33.9054 54.268C35.1026 53.0707 35.1012 51.1312 33.9054 49.9353L37.0422 53.0721C38.2394 54.2696 38.2396 56.2075 37.0422 57.4048Z" fill="#A3B18A" style="transform: translateY(-0.0101397px); opacity: 0.999797;"></path><path d="M46.8262 9.83051L56.015 19.0194L41.5889 33.4455L32.4 24.2567L46.8262 9.83051Z" fill="#7A8C78" style="transform: translateY(-0.0101397px); opacity: 0.999797;"></path><path d="M61.7158 53.5863L52.527 44.3975L66.9531 29.9713L76.142 39.1602L61.7158 53.5863Z" fill="#7A8C78" style="transform: translateY(-0.0101397px); opacity: 0.999797;"></path><path d="M29.8148 27.4234L29.4957 27.1042C28.2853 25.8939 28.2853 23.9315 29.4957 22.7209L45.2861 6.93055C46.4964 5.72017 48.4588 5.72017 49.6694 6.93055L49.9885 7.24967C51.1989 8.46005 51.1989 10.4224 49.9885 11.633L34.1981 27.4234C32.9877 28.6337 31.0254 28.6337 29.8148 27.4234Z" fill="#588157" style="transform: translateY(-0.0101397px); opacity: 0.999797;"></path><path d="M58.5539 56.1626L58.873 56.4817C60.0834 57.6921 62.0458 57.6921 63.2563 56.4817L79.0467 40.6913C80.2571 39.4809 80.2571 37.5186 79.0467 36.308L78.7276 35.9889C77.5172 34.7785 75.5549 34.7785 74.3443 35.9889L58.5539 51.7793C57.3434 52.9899 57.3434 54.9522 58.5539 56.1626Z" fill="#344E41" style="transform: translateY(-0.0101397px); opacity: 0.999797;"></path><path d="M60.0029 15.6437L70.3219 25.9627L48.5341 47.7506L38.2151 37.4316L60.0029 15.6437Z" fill="#344E41" style="transform: translateY(-0.0101397px); opacity: 0.999797;"></path><path d="M43.3042 42.5397L65.092 20.7519L70.3149 25.9747L48.527 47.7626L43.3042 42.5397Z" fill="#588157" style="transform: translateY(-0.0101397px); opacity: 0.999797;"></path><path d="M60.0528 15.2098L57.5246 14.1763C56.6579 13.8219 55.6632 14.0221 55.0012 14.6842L37.2488 32.4366C36.5867 33.0988 36.3865 34.0934 36.7408 34.96L37.7744 37.4882C38.1934 38.5133 39.5215 38.7807 40.3046 37.9976L60.562 17.74C61.3453 16.9569 61.0779 15.6289 60.0528 15.2098Z" fill="#588157" style="transform: translateY(-0.0101397px); opacity: 0.999797;"></path><path d="M70.7675 25.9244L71.801 28.4526C72.1554 29.3192 71.9552 30.314 71.2931 30.976L53.5407 48.7284C52.8785 49.3905 51.8839 49.5907 51.0173 49.2363L48.4891 48.2028C47.464 47.7838 47.1966 46.4557 47.9797 45.6726L68.2373 25.415C69.0204 24.6319 70.3484 24.8993 70.7675 25.9244Z" fill="#344E41" style="transform: translateY(-0.0101397px); opacity: 0.999797;"></path></g><path d="M80.1265 75.6084H42.4854V70.3261C42.4854 69.2356 43.3694 68.3515 44.4599 68.3515H78.1519C79.2424 68.3515 80.1265 69.2356 80.1265 70.3261V75.6084Z" fill="#7A8C78"></path><path d="M80.1257 70.3265V75.6084H75.9951V70.3265C75.9951 69.2365 75.1105 68.3519 74.0205 68.3519H78.1513C79.2411 68.3519 80.1257 69.2365 80.1257 70.3265Z" fill="#A3B18A"></path><path d="M88.4225 85.9765H34.1897C32.7512 85.9765 31.7956 84.4876 32.3945 83.1798L34.3118 78.9937C35.9724 75.3676 39.5947 73.0424 43.5831 73.0424H79.0291C83.0175 73.0424 86.6398 75.3676 88.3005 78.9937L90.2177 83.1798C90.8166 84.4876 89.8609 85.9765 88.4225 85.9765Z" fill="#A3B18A"></path><path d="M88.4234 85.9767H83.1435C84.581 85.9767 85.5366 84.4878 84.9384 83.1808L83.0211 78.9928C81.3604 75.3674 77.7372 73.0415 73.7505 73.0415H79.0285C83.017 73.0415 86.6404 75.3676 88.301 78.9928L90.2183 83.1808C90.8167 84.488 89.8609 85.9767 88.4234 85.9767Z" fill="#344E41"></path><path d="M85.5468 65.0819C85.1953 65.0819 84.8442 64.9473 84.5769 64.6785C84.0444 64.1427 84.047 63.2768 84.5826 62.7442L86.0627 61.2729C86.5985 60.7405 87.4644 60.7432 87.997 61.2786C88.5294 61.8145 88.5269 62.6804 87.9913 63.213L86.5112 64.6843C86.2444 64.9495 85.8954 65.0819 85.5468 65.0819Z" fill="#85958D"></path><path d="M81.2304 62.0229C81.1203 62.0229 81.0083 62.0094 80.8965 61.9814C80.164 61.7976 79.7191 61.0548 79.9027 60.3222L80.4161 58.2755C80.5999 57.5428 81.3433 57.098 82.0753 57.2817C82.8079 57.4655 83.2528 58.2083 83.0691 58.9409L82.5558 60.9876C82.4002 61.6086 81.8428 62.0229 81.2304 62.0229Z" fill="#85958D"></path><path d="M88.5812 69.416C87.9656 69.416 87.4066 68.9975 87.2539 68.3729C87.0744 67.6391 87.5236 66.8987 88.2574 66.7194L90.3076 66.2179C91.0419 66.0382 91.7816 66.4876 91.9611 67.2215C92.1406 67.9553 91.6914 68.6956 90.9576 68.8749L88.9073 69.3765C88.7981 69.403 88.6888 69.416 88.5812 69.416Z" fill="#85958D"></path></g><defs><clipPath id="clipLaw"><rect width="92" height="92" fill="white"></rect></clipPath></defs></svg>