<svg class="fastTimeIcon" width="91" height="91" viewBox="0 0 91 91" fill="none" xmlns="http://www.w3.org/2000/svg" style="transform: translateX(-0.0101397px); opacity: 0.999797;"><path d="M47.7724 16.3217H20.0544C19.3072 16.3217 18.7017 15.7161 18.7017 14.9689C18.7017 14.2218 19.3074 13.6162 20.0544 13.6162H47.7724C48.5196 13.6162 49.1253 14.2218 49.1253 14.9689C49.1253 15.7161 48.5198 16.3217 47.7724 16.3217Z" fill="#344E41"></path><path d="M21.2789 26.2377H7.01143C6.26423 26.2377 5.65869 25.6321 5.65869 24.8849C5.65869 24.1377 6.26441 23.5322 7.01143 23.5322H21.2789C22.0261 23.5322 22.6316 24.1377 22.6316 24.8849C22.6316 25.6321 22.0261 26.2377 21.2789 26.2377Z" fill="#344E41"></path><path d="M20.79 35.456H15.154C14.4068 35.456 13.8013 34.8505 13.8013 34.1033C13.8013 33.3561 14.407 32.7505 15.154 32.7505H20.7901C21.5373 32.7505 22.1429 33.3561 22.1429 34.1033C22.1429 34.8505 21.5372 35.456 20.79 35.456Z" fill="#344E41"></path><path d="M15.1538 42.1319H1.35274C0.605541 42.1319 0 41.5264 0 40.7792C0 40.032 0.605719 39.4265 1.35274 39.4265H15.1536C15.9008 39.4265 16.5064 40.032 16.5064 40.7792C16.5064 41.5264 15.9008 42.1319 15.1538 42.1319Z" fill="#344E41"></path><path d="M49.5763 77.3839H20.0544C19.3072 77.3839 18.7017 76.7784 18.7017 76.031C18.7017 75.2836 19.3074 74.6783 20.0544 74.6783H49.5763C50.3235 74.6783 50.929 75.2838 50.929 76.031C50.929 76.7782 50.3235 77.3839 49.5763 77.3839Z" fill="#344E41"></path><path d="M21.2789 67.468H7.01143C6.26423 67.468 5.65869 66.8624 5.65869 66.1152C5.65869 65.368 6.26441 64.7623 7.01143 64.7623H21.2789C22.0261 64.7623 22.6316 65.3679 22.6316 66.1152C22.6316 66.8626 22.0261 67.468 21.2789 67.468Z" fill="#344E41"></path><path d="M20.79 58.2496H15.154C14.4068 58.2496 13.8013 57.6441 13.8013 56.8967C13.8013 56.1493 14.407 55.5439 15.154 55.5439H20.7901C21.5373 55.5439 22.1429 56.1495 22.1429 56.8967C22.1429 57.6439 21.5372 58.2496 20.79 58.2496Z" fill="#344E41"></path><path d="M15.1538 51.5739H1.35274C0.605541 51.5739 0 50.9684 0 50.2212C0 49.474 0.605719 48.8683 1.35274 48.8683H15.1536C15.9008 48.8683 16.5064 49.4738 16.5064 50.2212C16.5064 50.9685 15.9008 51.5739 15.1538 51.5739Z" fill="#344E41"></path><path d="M57.6355 78.8645C76.0622 78.8645 90.9999 63.9267 90.9999 45.5C90.9999 27.0733 76.0622 12.1355 57.6355 12.1355C39.2088 12.1355 24.271 27.0733 24.271 45.5C24.271 63.9267 39.2088 78.8645 57.6355 78.8645Z" fill="#A3B18A"></path><path d="M57.6353 12.1355C56.7907 12.1355 55.9538 12.1675 55.125 12.2292C72.3791 13.5128 85.9792 27.9178 85.9792 45.5C85.9792 63.0822 72.3791 77.4872 55.125 78.7708C55.9538 78.8325 56.7907 78.8645 57.6353 78.8645C76.0621 78.8645 91 63.9268 91 45.5C91 27.0732 76.0621 12.1355 57.6353 12.1355Z" fill="#344E41"></path><path d="M57.6355 71.1193C71.7846 71.1193 83.2548 59.6492 83.2548 45.5C83.2548 31.3508 71.7846 19.8806 57.6355 19.8806C43.4863 19.8806 32.0161 31.3508 32.0161 45.5C32.0161 59.6492 43.4863 71.1193 57.6355 71.1193Z" fill="#DAD7CD"></path><path d="M57.6352 19.8805C56.8557 19.8805 56.085 19.9173 55.3232 19.9855C68.3889 21.1545 78.6306 32.1303 78.6306 45.5C78.6306 58.8697 68.3889 69.8453 55.3232 71.0143C56.085 71.0824 56.8557 71.1191 57.6352 71.1191C71.7845 71.1191 83.2546 59.6491 83.2546 45.4998C83.2547 31.3507 71.7845 19.8805 57.6352 19.8805Z" fill="#85958D"></path><path d="M57.6361 29.2355C56.8889 29.2355 56.2832 28.63 56.2832 27.8828V25.8177C56.2832 25.0705 56.8887 24.465 57.6361 24.465C58.3835 24.465 58.9889 25.0705 58.9889 25.8177V27.8826C58.9889 28.6298 58.3833 29.2355 57.6361 29.2355Z" fill="#588157"></path><path d="M70.0932 34.3953C69.7471 34.3953 69.4007 34.2633 69.1364 33.9992C68.6082 33.4708 68.6082 32.6143 69.1364 32.0859L70.5965 30.6258C71.1249 30.0977 71.9814 30.0977 72.5098 30.6258C73.038 31.1542 73.038 32.0107 72.5098 32.5391L71.0497 33.9992C70.7856 34.2633 70.4394 34.3953 70.0932 34.3953Z" fill="#588157"></path><path d="M77.3185 46.8529H75.2538C74.5066 46.8529 73.9009 46.2474 73.9009 45.5C73.9009 44.7526 74.5064 44.1473 75.2538 44.1473H77.3185C78.0657 44.1473 78.6714 44.7528 78.6714 45.5C78.6714 46.2472 78.0657 46.8529 77.3185 46.8529Z" fill="#588157"></path><path d="M71.5532 60.7702C71.2072 60.7702 70.8608 60.6382 70.5965 60.3741L69.1364 58.914C68.6082 58.3856 68.6082 57.5291 69.1364 57.0007C69.6648 56.4726 70.5213 56.4726 71.0497 57.0007L72.5098 58.4608C73.038 58.9892 73.038 59.8457 72.5098 60.3741C72.2457 60.6382 71.8995 60.7702 71.5532 60.7702Z" fill="#588157"></path><path d="M57.6361 66.535C56.8889 66.535 56.2832 65.9295 56.2832 65.1821V63.1174C56.2832 62.3702 56.8887 61.7646 57.6361 61.7646C58.3835 61.7646 58.9889 62.3702 58.9889 63.1174V65.1821C58.9889 65.9295 58.3833 66.535 57.6361 66.535Z" fill="#588157"></path><path d="M43.7186 60.7702C43.3724 60.7702 43.0261 60.6382 42.762 60.3741C42.2336 59.8457 42.2336 58.9892 42.762 58.4608L44.2221 57.0007C44.7503 56.4726 45.607 56.4726 46.1352 57.0007C46.6637 57.5291 46.6637 58.3856 46.1352 58.914L44.6752 60.3741C44.411 60.6382 44.0648 60.7702 43.7186 60.7702Z" fill="#588157"></path><path d="M40.0187 46.8529H37.9538C37.2066 46.8529 36.6011 46.2474 36.6011 45.5C36.6011 44.7526 37.2068 44.1473 37.9538 44.1473H40.0187C40.7659 44.1473 41.3715 44.7528 41.3715 45.5C41.3715 46.2472 40.7657 46.8529 40.0187 46.8529Z" fill="#588157"></path><path d="M45.1787 34.3953C44.8325 34.3953 44.4862 34.2633 44.2221 33.9992L42.762 32.5391C42.2336 32.0107 42.2336 31.1542 42.762 30.6258C43.2903 30.0977 44.1469 30.0977 44.6752 30.6258L46.1352 32.0859C46.6637 32.6143 46.6637 33.4708 46.1352 33.9992C45.8711 34.2633 45.5249 34.3953 45.1787 34.3953Z" fill="#588157"></path><path d="M63.5569 46.8529H57.6351C56.8879 46.8529 56.2822 46.2474 56.2822 45.5V34.1032C56.2822 33.356 56.8878 32.7504 57.6351 32.7504C58.3825 32.7504 58.9879 33.356 58.9879 34.1032V44.1471H63.5569C64.3041 44.1471 64.9098 44.7527 64.9098 45.4998C64.9098 46.247 64.3041 46.8529 63.5569 46.8529Z" fill="#344E41"></path></svg>